<svg width="182" height="177" viewBox="0 0 182 177" fill="none" xmlns="http://www.w3.org/2000/svg">
<g clip-path="url(#clip0_31_3)">
<path d="M50.4489 76.1981H148.033L154.38 47.0637H57.5255L50.4489 76.1981Z" fill="#231F20" stroke="white"/>
<path d="M147.497 78.6611H49.8518L42.7456 107.92H141.122L147.497 78.6611Z" fill="#005B90" stroke="white"/>
<mask id="mask0_31_3" style="mask-type:luminance" maskUnits="userSpaceOnUse" x="-4" y="-9" width="186" height="186">
<path d="M-4 -9.00001H182V177H-4V-9.00001Z" fill="white"/>
</mask>
<g mask="url(#mask0_31_3)">
<path d="M12.9189 124.285L22.7351 127.237C22.7351 127.237 48.0905 85.7953 58.1768 84.9773C58.1768 84.9773 58.7225 84.3824 58.1768 86.8616C57.6322 89.3386 55.7239 93.9744 55.7239 93.9744L63.6296 98.6092C63.6296 98.6092 72.7065 86.3137 76.2509 84.1943C76.2509 84.1943 78.0794 82.672 77.8082 84.915C77.5337 87.1591 74.5361 94.7914 75.0796 96.154L83.8056 100.518C83.8056 100.518 90.622 86.0687 98.8011 81.1606C98.8011 81.1606 101.254 80.8894 101.254 81.1606C101.254 81.434 96.5144 95.511 96.6194 96.7008C96.7233 97.8918 105.889 101.609 105.889 101.609C105.889 101.609 119.304 78.9187 127.211 68.2866C135.118 57.6546 163.865 28.2398 163.865 28.2398L155.961 20.8798C155.961 20.8798 116.25 63.4398 112.704 70.2562L103.056 65.0474C103.056 65.0474 95.1146 70.1698 88.3932 76.8288C88.3932 76.8288 86.8567 77.4117 84.4989 75.2103C80.8834 71.8299 78.9029 72.1154 76.6927 73.2943C74.4836 74.4721 73.3036 76.5357 71.3909 75.7997C69.476 75.0616 69.348 70.2092 64.616 70.0539C46.648 69.4645 12.9189 124.285 12.9189 124.285Z" fill="#EF4339"/>
<path d="M12.9189 124.285L22.7351 127.237C22.7351 127.237 48.0905 85.7953 58.1768 84.9773C58.1768 84.9773 58.7225 84.3824 58.1768 86.8616C57.6322 89.3386 55.7239 93.9744 55.7239 93.9744L63.6296 98.6092C63.6296 98.6092 72.7065 86.3137 76.2509 84.1943C76.2509 84.1943 78.0794 82.672 77.8082 84.915C77.5337 87.1591 74.5361 94.7914 75.0796 96.154L83.8056 100.518C83.8056 100.518 90.622 86.0687 98.8011 81.1606C98.8011 81.1606 101.254 80.8894 101.254 81.1606C101.254 81.434 96.5144 95.511 96.6194 96.7008C96.7233 97.8918 105.889 101.609 105.889 101.609C105.889 101.609 119.304 78.9187 127.211 68.2866C135.118 57.6546 163.865 28.2398 163.865 28.2398L155.961 20.8798C155.961 20.8798 116.25 63.4398 112.704 70.2562L103.056 65.0474C103.056 65.0474 95.1146 70.1698 88.3932 76.8288C88.3932 76.8288 86.8567 77.4117 84.4989 75.2103C80.8834 71.8299 78.9029 72.1154 76.6927 73.2943C74.4836 74.4721 73.3036 76.5357 71.3909 75.7997C69.476 75.0616 69.348 70.2092 64.616 70.0539C46.648 69.4645 12.9189 124.285 12.9189 124.285Z" stroke="white" stroke-width="0.705333" stroke-miterlimit="10"/>
<path d="M44.728 119.359H44.6788L40.4673 132.663H38.0187L45.0441 111.665L49.2096 127.534L58.1204 111.665L58.8695 132.663H56.4209L56.188 119.359H56.1377L48.3796 133.089L44.728 119.359Z" fill="#6C6C6C"/>
<path d="M63.9351 127.614L61.0108 132.663H58.4616L70.6849 111.666L76.6341 132.663H74.086L72.6687 127.614H63.9351ZM69.8636 117.169L65.2628 125.316H72.0278L69.8636 117.169Z" fill="#6C6C6C"/>
<path d="M89.5532 132.663H86.677L82.3463 124.141H81.3621L80.088 132.663H77.7149L80.7256 112.522H83.6018C85.2925 112.522 87.1079 112.548 88.4859 113.456C89.9272 114.444 90.555 116.342 90.2674 118.263C89.8343 121.15 87.6591 123.552 84.8562 123.9L89.5532 132.663ZM81.6738 122.058H82.4305C84.8529 122.058 87.5486 121.576 88.0276 118.371C88.5012 115.219 85.742 114.764 83.3929 114.764H82.7619L81.6738 122.058Z" fill="#6C6C6C"/>
<path d="M95.9286 114.819L95.0821 120.48H101.694L101.352 122.777H94.7365L93.2613 132.662H90.8892L93.8988 112.521H103.11L102.769 114.819H95.9286Z" fill="#6C6C6C"/>
<path d="M114.21 132.663H111.332L107.002 124.141H106.017L104.742 132.663H102.37L105.381 112.522H108.258C109.949 112.522 111.763 112.548 113.141 113.456C114.584 114.444 115.209 116.342 114.922 118.263C114.49 121.15 112.313 123.552 109.512 123.9L114.21 132.663ZM106.328 122.058H107.086C109.508 122.058 112.205 121.576 112.684 118.371C113.157 115.219 110.396 114.764 108.048 114.764H107.417L106.328 122.058Z" fill="#6C6C6C"/>
<path d="M118.578 112.521H128.801L128.458 114.819H120.607L119.766 120.453H127.389L127.046 122.751H119.422L118.284 130.365H126.135L125.792 132.662H115.57L118.578 112.521Z" fill="#6C6C6C"/>
<path d="M133.338 132.663H130.965L133.631 114.817H129.112L129.454 112.522H140.864L140.521 114.817H136.004L133.338 132.663Z" fill="#6C6C6C"/>
<path d="M41.3175 136.609C40.8243 136.144 40.1495 135.894 39.4999 135.894C37.959 135.894 36.7812 137.256 36.7812 138.872C36.7812 140.466 37.9481 141.83 39.4835 141.83C40.1572 141.83 40.8079 141.56 41.3175 141.075V142.148C40.7882 142.476 40.1134 142.66 39.5098 142.66C37.5478 142.66 35.9227 141.007 35.9227 138.901C35.9227 136.745 37.5555 135.063 39.5819 135.063C40.1856 135.063 40.7969 135.217 41.3175 135.556V136.609Z" fill="#6C6C6C"/>
<path d="M49.2515 138.861C49.2515 141.026 47.6341 142.661 45.6448 142.661C43.6534 142.661 42.0403 141.026 42.0403 138.861C42.0403 136.773 43.6719 135.063 45.6448 135.063C47.6166 135.063 49.2515 136.773 49.2515 138.861ZM48.392 138.861C48.392 137.256 47.2612 135.911 45.6448 135.911C44.0307 135.911 42.8966 137.256 42.8966 138.861C42.8966 140.523 44.1575 141.81 45.6448 141.81C47.1332 141.81 48.392 140.523 48.392 138.861Z" fill="#6C6C6C"/>
<path d="M51.4328 137.691H51.4153L50.6104 142.507H49.7268L51.131 134.907L53.4954 140.65L55.862 134.907L57.2651 142.507H56.3825L55.5787 137.691H55.5601L53.4954 142.66L51.4328 137.691Z" fill="#6C6C6C"/>
<path d="M59.0742 142.506H58.2169V135.216H59.2022C61.3194 135.216 61.9767 135.988 61.9767 137.325C61.9767 138.861 60.8721 139.452 59.5686 139.452H59.0742V142.506ZM59.0742 138.639H59.3476C60.2247 138.639 61.174 138.465 61.174 137.305C61.174 136.163 60.1515 136.029 59.3028 136.029H59.0742V138.639Z" fill="#6C6C6C"/>
<path d="M63.164 140.68L62.381 142.506H61.459L64.7442 134.906L68.0316 142.506H67.1086L66.3245 140.68H63.164ZM64.7442 136.899L63.5216 139.847H65.968L64.7442 136.899Z" fill="#6C6C6C"/>
<path d="M75.0618 138.833V139.123C75.0618 141.124 73.7276 142.661 71.8007 142.661C69.8737 142.661 68.3241 140.901 68.3241 138.88C68.3241 136.782 69.912 135.062 71.8925 135.062C72.9621 135.062 74.0207 135.574 74.6955 136.473L74.094 137.082C73.6008 136.367 72.7696 135.893 71.9297 135.893C70.3866 135.893 69.1826 137.218 69.1826 138.852C69.1826 140.379 70.3691 141.83 71.8565 141.83C72.9249 141.83 74.0732 140.853 74.1115 139.663H72.3311V138.833H75.0618Z" fill="#6C6C6C"/>
<path d="M76.0102 134.869L81.1775 140.602V135.216H82.0349V142.806L76.8698 137.073V142.506H76.0102V134.869Z" fill="#6C6C6C"/>
<path d="M83.4155 142.506H84.2718V135.218H83.4155V142.506Z" fill="#6C6C6C"/>
<path d="M85.7417 135.216H89.4403V136.047H86.6002V138.088H89.3572V138.92H86.6002V141.676H89.4403V142.506H85.7417V135.216Z" fill="#6C6C6C"/>
<path d="M94.6704 137.691H94.6519L93.848 142.507H92.9633L94.3686 134.907L96.733 140.65L99.0963 134.907L100.503 142.507H99.619L98.8152 137.691H98.7966L96.733 142.66L94.6704 137.691Z" fill="#6C6C6C"/>
<path d="M102.43 140.68L101.645 142.506H100.723L104.009 134.906L107.296 142.506H106.372L105.588 140.68H102.43ZM104.009 136.899L102.787 139.847H105.233L104.009 136.899Z" fill="#6C6C6C"/>
<path d="M112.336 142.506H111.295L109.268 139.422H108.913V142.506H108.053V135.216H109.095C109.706 135.216 110.365 135.227 110.911 135.554C111.486 135.913 111.815 136.6 111.815 137.296C111.815 138.339 111.158 139.209 110.163 139.334L112.336 142.506ZM108.913 138.669H109.185C110.063 138.669 111.013 138.494 111.013 137.332C111.013 136.193 109.989 136.029 109.14 136.029H108.913V138.669Z" fill="#6C6C6C"/>
<path d="M113.166 142.506H114.025V135.218H113.166V142.506Z" fill="#6C6C6C"/>
<path d="M117.346 142.506H116.489V136.047H114.855V135.216H118.981V136.047H117.346V142.506Z" fill="#6C6C6C"/>
<path d="M119.813 142.506H120.671V135.218H119.813V142.506Z" fill="#6C6C6C"/>
<path d="M123.309 137.691H123.289L122.486 142.507H121.602L123.007 134.907L125.371 140.65L127.737 134.907L129.141 142.507H128.255L127.452 137.691H127.433L125.371 142.66L123.309 137.691Z" fill="#6C6C6C"/>
<path d="M130.091 135.216H133.787V136.047H130.95V138.088H133.707V138.92H130.95V141.676H133.787V142.506H130.091V135.216Z" fill="#6C6C6C"/>
</g>
</g>
<defs>
<clipPath id="clip0_31_3">
<rect width="186" height="186" fill="white" transform="translate(-4 -9)"/>
</clipPath>
</defs>
</svg>
